<svg width="101" height="39" viewBox="0 0 101 39" fill="none" xmlns="http://www.w3.org/2000/svg">
<path d="M0 34H19V39H0V34Z" fill="#1B4332"/>
<path d="M0 25H19V31H0V25Z" fill="#1B4332"/>
<path d="M0 16H19V22H0V16Z" fill="#1B4332"/>
<path d="M0 7H19V13H0V7Z" fill="#1B4332"/>
<path d="M0 0H19V4H0V0Z" fill="#1B4332"/>
<path d="M85.9924 39C83.0934 39 80.4242 38.5306 77.9848 37.5917C75.5808 36.6167 73.4773 35.2625 71.6742 33.5292C69.8712 31.7597 68.4747 29.6833 67.4848 27.3C66.495 24.9167 66 22.3167 66 19.5C66 16.6833 66.495 14.0833 67.4848 11.7C68.4747 9.31667 69.8712 7.25833 71.6742 5.525C73.5126 3.75556 75.6515 2.40139 78.0909 1.4625C80.5303 0.487501 83.1995 0 86.0985 0C89.245 0 92.0732 0.52361 94.5833 1.57083C97.1288 2.61806 99.2677 4.15278 101 6.175L98.8258 8.34167L96.6515 10.5083C95.202 9.02778 93.6288 7.94444 91.9318 7.25833C90.2702 6.53611 88.4318 6.175 86.4167 6.175C84.4722 6.175 82.6692 6.5 81.0076 7.15C79.346 7.8 77.9141 8.72083 76.7121 9.9125C75.5101 11.1042 74.5732 12.5125 73.9015 14.1375C73.2651 15.7625 72.947 17.55 72.947 19.5C72.947 21.4139 73.2651 23.1833 73.9015 24.8083C74.5732 26.4333 75.5101 27.8597 76.7121 29.0875C77.9141 30.2792 79.3283 31.2 80.9545 31.85C82.5808 32.5 84.3838 32.825 86.3636 32.825C88.202 32.825 89.9697 32.5361 91.6667 31.9583C93.399 31.3444 95.0429 30.3333 96.5985 28.925L100.514 34C98.5694 35.5889 96.3157 36.9778 93.7348 37.8083C91.1894 38.6028 88.6086 39 85.9924 39ZM100.514 34L94 33.2583V19.0667H100.514V34Z" fill="#1B4332"/>
<path d="M53 39V0H60V39H53ZM26 39V0H33V39H26ZM33 22V16H53V22H33Z" fill="#1B4332"/>
</svg>
